{"title":"Mum.&amp;.Dad.2008.DVDRIP.XviD-ZEKTORM","uid":4986553,"size":736194283,"categoryP":"video","categoryS":"movies","magnet":"?xt=urn:btih:4edb2d471d136e52a67ca5f8b9e32dff18c48d38&amp;dn=Mum.%26.Dad.2008.DVDRIP.XviD-ZEKTORM&amp;tr=udp%3A%2F%2Ftracker.openbittorrent.com%3A80&amp;tr=udp%3A%2F%2Fopen.demonii.com%3A1337&amp;tr=udp%3A%2F%2Ftracker.coppersurfer.tk%3A6969&amp;tr=udp%3A%2F%2Fexodus.desync.com%3A6969","seeders":0,"leechers":0,"uploader":"blowley","files":3,"time":1246738371,"description":"Title                            : Mum &amp; Dad\nYear                             : 2008\nGenre                            : Horror\niMDB URL                         : http://www.imdb.com/title/tt1129428/\n\nComplete name                    : MD-ZEKTORM.avi\nFormat                           : AVI\nFile size                        : 702 MiB\nDuration                         : 1h 24mn\nOverall bit rate                 : 1164 Kbps\nSource                           : DVD PAL\n\nVideo\nFormat                           : MPEG-4 Visual\nFormat profile                   : Streaming Video@L1\nCodec ID                         : XVID\nCodec ID/Hint                    : XviD\nDuration                         : 1h 24mn\nBit rate                         : 1045 Kbps\nWidth                            : 720 pixels\nHeight                           : 416 pixels\nDisplay aspect ratio             : 16/9\nFrame rate                       : 25.000 fps\nResolution                       : 24 bits\nColorimetry                      : 4:2:0\nScan type                        : Progressive\nBits/(Pixel*Frame)               : 0.140\nStream size                      : 630 MiB (90%)\nWriting library                  : XviD\n\nAudio\nFormat                           : MPEG Audio\nFormat version                   : Version 1\nFormat profile                   : Layer 3\nCodec ID                         : 55\nCodec ID/Hint                    : MP3\nDuration                         : 1h 24mn\nBit rate mode                    : Variable\nBit rate                         : 106 Kbps\nMinimum bit rate                 : 128 Kbps\nChannel(s)                       : 2 channels\nSampling rate                    : 48.0 KHz\nResolution                       : 16 bits\nStream size                      : 63.8 MiB (9%)\nWriting library                  : LAME3.98r\nEncoding settings                : ABR\n","torrent":{"xt":"urn:btih:4edb2d471d136e52a67ca5f8b9e32dff18c48d38","amp;dn":"Mum.%26.Dad.2008.DVDRIP.XviD-ZEKTORM","amp;tr":["udp%3A%2F%2Ftracker.openbittorrent.com%3A80","udp%3A%2F%2Fopen.demonii.com%3A1337","udp%3A%2F%2Ftracker.coppersurfer.tk%3A6969","udp%3A%2F%2Fexodus.desync.com%3A6969"],"infoHash":"4edb2d471d136e52a67ca5f8b9e32dff18c48d38","infoHashBuffer":{"type":"Buffer","data":[78,219,45,71,29,19,110,82,166,124,165,248,185,227,45,255,24,196,141,56]},"announce":[],"urlList":[]}}